<svg width="20" height="20" viewBox="0 0 20 20" fill="none" xmlns="http://www.w3.org/2000/svg">
<path d="M17.3878 1.33325H2.61352C2.27417 1.33325 1.94871 1.46806 1.70875 1.70802C1.46879 1.94798 1.33398 2.27343 1.33398 2.61279V17.387C1.33398 17.7264 1.46879 18.0519 1.70875 18.2918C1.94871 18.5318 2.27417 18.6666 2.61352 18.6666H17.3878C17.7271 18.6666 18.0526 18.5318 18.2926 18.2918C18.5325 18.0519 18.6673 17.7264 18.6673 17.387V2.61279C18.6673 2.27343 18.5325 1.94798 18.2926 1.70802C18.0526 1.46806 17.7271 1.33325 17.3878 1.33325ZM6.50028 16.0991H3.89426V7.82122H6.50028V16.0991ZM5.19547 6.67409C4.89986 6.67242 4.61137 6.58323 4.3664 6.41776C4.12144 6.25229 3.93098 6.01797 3.81906 5.74436C3.70714 5.47075 3.67879 5.17012 3.73756 4.88041C3.79634 4.5907 3.93962 4.3249 4.14932 4.11654C4.35902 3.90818 4.62574 3.76661 4.91582 3.7097C5.2059 3.65278 5.50634 3.68307 5.77923 3.79674C6.05211 3.91041 6.28521 4.10237 6.4491 4.34839C6.61299 4.59442 6.70033 4.88347 6.7001 5.17909C6.70288 5.377 6.6658 5.57345 6.59105 5.75672C6.5163 5.94 6.40542 6.10635 6.26501 6.24586C6.1246 6.38537 5.95754 6.49518 5.77379 6.56875C5.59004 6.64232 5.39336 6.67814 5.19547 6.67409ZM16.1058 16.1063H13.501V11.584C13.501 10.2503 12.9341 9.83862 12.2022 9.83862C11.4294 9.83862 10.6711 10.4212 10.6711 11.6177V16.1063H8.06509V7.82723H10.5712V8.97436H10.6049C10.8565 8.4652 11.7376 7.59492 13.0821 7.59492C14.5362 7.59492 16.107 8.45797 16.107 10.9858L16.1058 16.1063Z" fill="white"/>
</svg>
