<svg width="20" height="20" viewBox="0 0 20 20" fill="none" xmlns="http://www.w3.org/2000/svg">
<path d="M8.27466 1.4429C9.04735 0.12493 10.9527 0.124932 11.7253 1.4429L13.4512 4.38664C13.7332 4.86761 14.2031 5.20904 14.7477 5.3286L18.0807 6.0603C19.5729 6.3879 20.1617 8.19996 19.147 9.3421L16.8806 11.8931C16.5103 12.3099 16.3308 12.8624 16.3854 13.4173L16.7195 16.8132C16.869 18.3337 15.3276 19.4536 13.9278 18.8415L10.8013 17.4744C10.2904 17.251 9.70956 17.251 9.19873 17.4744L6.0722 18.8415C4.6724 19.4536 3.13097 18.3337 3.28054 16.8132L3.61459 13.4173C3.66917 12.8624 3.48967 12.3099 3.11938 11.8931L0.853022 9.3421C-0.161664 8.19995 0.427111 6.3879 1.91935 6.0603L5.25233 5.3286C5.79689 5.20904 6.26683 4.86761 6.54881 4.38664L8.27466 1.4429Z" fill="#FFCE22"/>
</svg>
